{"title":"Emelie.2015.WEBRip.480p.x264.AAC-VYTO [P2PDL]","uid":13756740,"size":323586701,"categoryP":"video","categoryS":"movies","magnet":"?xt=urn:btih:b0b0612c68cc124f44d6abf6d0db45fde3a87e33&amp;dn=Emelie.2015.WEBRip.480p.x264.AAC-VYTO+%5BP2PDL%5D&amp;tr=udp%3A%2F%2Ftracker.leechers-paradise.org%3A6969&amp;tr=udp%3A%2F%2Fzer0day.ch%3A1337&amp;tr=udp%3A%2F%2Fopen.demonii.com%3A1337&amp;tr=udp%3A%2F%2Ftracker.coppersurfer.tk%3A6969&amp;tr=udp%3A%2F%2Fexodus.desync.com%3A6969","seeders":0,"leechers":1,"uploader":"VYTOP2PDL","files":7,"time":1457201458,"description":"____    ____ ____    ____ .___________.  ______   \r\n     /   /      /   / |           | /  __    \r\n    /   /      /   /  `---|  |----`|  |  |  | \r\n        /     _    _/       |  |     |  |  |  | \r\n       /        |  |         |  |     |  `--'  | \r\n    __/         |__|         |__|      ______/  \r\n                                                  \r\nPresenting Small Encodes with quality for years!\r\n                                                                                                   \r\n                                                                                                   \r\n\r\n\r\nEmelie.2015.WEBRip.480p.x264.AAC-VYTO\r\n\r\n\r\nGenre: Thriller  \nhttp://www.imdb.com/title/tt4503598/\r\n\r\n\r\nFormat                                   : MPEG-4\r\nFile size                                : 301 MiB\r\nDuration                                 : 1h 22mn\r\nOverall bit rate                         : 513 Kbps\r\n\r\nVideo\r\nFormat                                   : AVC\r\nBit rate                                 : 478 Kbps\r\nWidth                                    : 720 pixels\r\nHeight                                   : 304 pixels\r\nDisplay aspect ratio                     : 2.35:1\r\nFrame rate mode                          : Constant\r\nFrame rate                               : 23.976 fps\r\nBit depth                                : 8 bits\r\nStream size                              : 281 MiB (93%)\r\nWriting library                          : x264 \r\n\r\nAudio\r\nFormat                                   : AAC\r\nBit rate mode                            : Variable\r\nBit rate                                 : 31.9 Kbps\r\nChannel(s)                               : 2 channels \r\nChannel positions                        : Front: L R\r\nSampling rate                            : 48.0 KHz \r\nStream size                              : 18.8 MiB (6%)\r\nLanguage                                 : English\r\n\r\nSubtitle                                 : Yes (English)\r\n\r\nScreen Shot: (Click to view)\r\n \nhttp://ititli.com/X66 \nhttp://ititli.com/X68 \nhttp://ititli.com/X6e \nhttp://ititli.com/X6j \nhttp://ititli.com/X6k \nhttp://ititli.com/X6o \nhttp://ititli.com/X6G \nhttp://ititli.com/X6H \nhttp://ititli.com/X6M\r\n\r\n----------------------------------------------------------------------------------------------------\r\n\r\n\r\nEncoder Notes: Looking For Early Access To Anything You Can Provide WEBDL, DVDScr, DVDR, BluRay,\r\nDirect Audio, Music Releases and Seedboxes. If You Got anything to offer please contact us.\r\n\r\nFind us and join us!","torrent":{"xt":"urn:btih:b0b0612c68cc124f44d6abf6d0db45fde3a87e33","amp;dn":"Emelie.2015.WEBRip.480p.x264.AAC-VYTO+%5BP2PDL%5D","amp;tr":["udp%3A%2F%2Ftracker.leechers-paradise.org%3A6969","udp%3A%2F%2Fzer0day.ch%3A1337","udp%3A%2F%2Fopen.demonii.com%3A1337","udp%3A%2F%2Ftracker.coppersurfer.tk%3A6969","udp%3A%2F%2Fexodus.desync.com%3A6969"],"infoHash":"b0b0612c68cc124f44d6abf6d0db45fde3a87e33","infoHashBuffer":{"type":"Buffer","data":[176,176,97,44,104,204,18,79,68,214,171,246,208,219,69,253,227,168,126,51]},"announce":[],"urlList":[]}}